<mxfile host="app.diagrams.net" modified="2023-11-28T16:38:11.177Z" agent="Mozilla/5.0 (Macintosh; Intel Mac OS X 10_15_7) AppleWebKit/605.1.15 (KHTML, like Gecko) Version/16.3 Safari/605.1.15" etag="rZf6oXbkQtYFG1QgJqVG" version="22.1.4" type="device">
  <diagram name="Page-1" id="uWpVd7Wth2LQbYs4K0oH">
    <mxGraphModel dx="1406" dy="953" grid="1" gridSize="10" guides="1" tooltips="1" connect="1" arrows="1" fold="1" page="1" pageScale="1" pageWidth="827" pageHeight="1169" math="0" shadow="0">
      <root>
        <mxCell id="0" />
        <mxCell id="1" parent="0" />
        <mxCell id="BMBLtEc4FXJELd8b_WvW-7" value="" style="ellipse;whiteSpace=wrap;html=1;fontSize=13;" parent="1" vertex="1">
          <mxGeometry x="276.07264206209726" y="20" width="166.014352665495" height="55.05440158259149" as="geometry" />
        </mxCell>
        <mxCell id="BMBLtEc4FXJELd8b_WvW-35" style="edgeStyle=orthogonalEdgeStyle;rounded=0;orthogonalLoop=1;jettySize=auto;html=1;entryX=0;entryY=0.5;entryDx=0;entryDy=0;fontSize=13;" parent="1" target="BMBLtEc4FXJELd8b_WvW-7" edge="1">
          <mxGeometry relative="1" as="geometry">
            <mxPoint x="140" y="150" as="sourcePoint" />
            <Array as="points">
              <mxPoint x="144" y="150" />
              <mxPoint x="240" y="150" />
              <mxPoint x="240" y="47" />
            </Array>
          </mxGeometry>
        </mxCell>
        <mxCell id="BMBLtEc4FXJELd8b_WvW-8" value="Zobrazit informace o dolu&amp;nbsp;" style="text;html=1;strokeColor=none;fillColor=none;align=center;verticalAlign=middle;whiteSpace=wrap;rounded=0;fontSize=13;" parent="1" vertex="1">
          <mxGeometry x="299.54510837727" y="31.469666996373235" width="121.63005272407733" height="34.40900098911969" as="geometry" />
        </mxCell>
        <mxCell id="BMBLtEc4FXJELd8b_WvW-9" value="" style="ellipse;whiteSpace=wrap;html=1;fontSize=13;" parent="1" vertex="1">
          <mxGeometry x="275.8592560046866" y="93.40586877678865" width="162.38678968951376" height="55.05440158259149" as="geometry" />
        </mxCell>
        <mxCell id="BMBLtEc4FXJELd8b_WvW-10" value="&lt;font style=&quot;font-size: 13px;&quot;&gt;Zobrazit informace o&amp;nbsp;kontraktu&lt;/font&gt;" style="text;html=1;strokeColor=none;fillColor=none;align=center;verticalAlign=middle;whiteSpace=wrap;rounded=0;fontSize=13;" parent="1" vertex="1">
          <mxGeometry x="275.8592560046866" y="105.45360698977908" width="169.85530169888693" height="30.96810089020771" as="geometry" />
        </mxCell>
        <mxCell id="BMBLtEc4FXJELd8b_WvW-36" style="edgeStyle=orthogonalEdgeStyle;rounded=0;orthogonalLoop=1;jettySize=auto;html=1;fontSize=13;" parent="1" target="BMBLtEc4FXJELd8b_WvW-10" edge="1">
          <mxGeometry relative="1" as="geometry">
            <mxPoint x="150" y="150" as="sourcePoint" />
            <mxPoint x="316.1892208553017" y="120.93306956808436" as="targetPoint" />
            <Array as="points">
              <mxPoint x="240" y="150" />
              <mxPoint x="240" y="121" />
            </Array>
          </mxGeometry>
        </mxCell>
        <mxCell id="BMBLtEc4FXJELd8b_WvW-11" value="" style="ellipse;whiteSpace=wrap;html=1;fontSize=13;" parent="1" vertex="1">
          <mxGeometry x="273.51200937316935" y="166.8117375535773" width="164.52065026362038" height="55.05440158259149" as="geometry" />
        </mxCell>
        <mxCell id="BMBLtEc4FXJELd8b_WvW-37" style="edgeStyle=orthogonalEdgeStyle;rounded=0;orthogonalLoop=1;jettySize=auto;html=1;entryX=0;entryY=0.5;entryDx=0;entryDy=0;fontSize=13;" parent="1" target="BMBLtEc4FXJELd8b_WvW-11" edge="1">
          <mxGeometry relative="1" as="geometry">
            <mxPoint x="150" y="150" as="sourcePoint" />
            <Array as="points">
              <mxPoint x="240" y="150" />
              <mxPoint x="240" y="194" />
            </Array>
          </mxGeometry>
        </mxCell>
        <mxCell id="BMBLtEc4FXJELd8b_WvW-12" value="&lt;font style=&quot;font-size: 13px;&quot;&gt;Zobrazit informace o dodávkach surovin&lt;/font&gt;" style="text;html=1;strokeColor=none;fillColor=none;align=center;verticalAlign=middle;whiteSpace=wrap;rounded=0;fontSize=13;" parent="1" vertex="1">
          <mxGeometry x="283.2253427065026" y="180.57533794922517" width="145.10251903925015" height="27.527200791295744" as="geometry" />
        </mxCell>
        <mxCell id="BMBLtEc4FXJELd8b_WvW-193" style="edgeStyle=orthogonalEdgeStyle;rounded=0;orthogonalLoop=1;jettySize=auto;html=1;entryX=0;entryY=0.5;entryDx=0;entryDy=0;" parent="1" source="BMBLtEc4FXJELd8b_WvW-13" target="BMBLtEc4FXJELd8b_WvW-23" edge="1">
          <mxGeometry relative="1" as="geometry">
            <Array as="points">
              <mxPoint x="240" y="150" />
              <mxPoint x="240" y="345" />
            </Array>
          </mxGeometry>
        </mxCell>
        <mxCell id="BMBLtEc4FXJELd8b_WvW-194" style="edgeStyle=orthogonalEdgeStyle;rounded=0;orthogonalLoop=1;jettySize=auto;html=1;entryX=0;entryY=0.5;entryDx=0;entryDy=0;" parent="1" source="BMBLtEc4FXJELd8b_WvW-13" target="BMBLtEc4FXJELd8b_WvW-56" edge="1">
          <mxGeometry relative="1" as="geometry">
            <Array as="points">
              <mxPoint x="240" y="150" />
              <mxPoint x="240" y="414" />
              <mxPoint x="273" y="414" />
            </Array>
          </mxGeometry>
        </mxCell>
        <mxCell id="BMBLtEc4FXJELd8b_WvW-198" style="edgeStyle=orthogonalEdgeStyle;rounded=0;orthogonalLoop=1;jettySize=auto;html=1;" parent="1" edge="1" target="BMBLtEc4FXJELd8b_WvW-85">
          <mxGeometry relative="1" as="geometry">
            <mxPoint x="96.65999999999997" y="1071.985553357512" as="targetPoint" />
            <mxPoint x="92.1369302870533" y="166.80769230769232" as="sourcePoint" />
            <Array as="points">
              <mxPoint x="60" y="167" />
              <mxPoint x="60" y="1030" />
            </Array>
          </mxGeometry>
        </mxCell>
        <mxCell id="BMBLtEc4FXJELd8b_WvW-200" style="edgeStyle=orthogonalEdgeStyle;rounded=0;orthogonalLoop=1;jettySize=auto;html=1;entryX=0;entryY=0.5;entryDx=0;entryDy=0;" parent="1" source="BMBLtEc4FXJELd8b_WvW-13" target="BMBLtEc4FXJELd8b_WvW-60" edge="1">
          <mxGeometry relative="1" as="geometry">
            <Array as="points">
              <mxPoint x="240" y="150" />
              <mxPoint x="240" y="485" />
            </Array>
          </mxGeometry>
        </mxCell>
        <mxCell id="BMBLtEc4FXJELd8b_WvW-204" style="edgeStyle=orthogonalEdgeStyle;rounded=0;orthogonalLoop=1;jettySize=auto;html=1;entryX=0;entryY=0.5;entryDx=0;entryDy=0;" parent="1" source="BMBLtEc4FXJELd8b_WvW-13" target="BMBLtEc4FXJELd8b_WvW-202" edge="1">
          <mxGeometry relative="1" as="geometry">
            <Array as="points">
              <mxPoint x="240" y="150" />
              <mxPoint x="240" y="552" />
            </Array>
          </mxGeometry>
        </mxCell>
        <mxCell id="BMBLtEc4FXJELd8b_WvW-13" value="&lt;font style=&quot;font-size: 13px;&quot;&gt;Administrátor&lt;/font&gt;" style="shape=umlActor;verticalLabelPosition=bottom;verticalAlign=top;html=1;outlineConnect=0;fontSize=13;" parent="1" vertex="1">
          <mxGeometry x="92.13693028705332" y="93.40341246290802" width="53.346514352665494" height="119.28453676228158" as="geometry" />
        </mxCell>
        <mxCell id="BMBLtEc4FXJELd8b_WvW-14" value="" style="ellipse;whiteSpace=wrap;html=1;fontSize=13;" parent="1" vertex="1">
          <mxGeometry x="278.63327475102517" y="884.5252225519287" width="170.49545987111892" height="55.05440158259149" as="geometry" />
        </mxCell>
        <mxCell id="BMBLtEc4FXJELd8b_WvW-16" value="&lt;font style=&quot;font-size: 13px;&quot;&gt;Spravovat d&lt;span style=&quot;text-align: start; caret-color: rgb(32, 33, 34); color: rgb(32, 33, 34); font-family: sans-serif; font-size: 14px;&quot;&gt;ů&lt;/span&gt;l&amp;nbsp;&lt;/font&gt;" style="text;html=1;strokeColor=none;fillColor=none;align=center;verticalAlign=middle;whiteSpace=wrap;rounded=0;fontSize=13;" parent="1" vertex="1">
          <mxGeometry x="281.19390743995314" y="889.1130893504779" width="165.58758055067372" height="45.87866798549291" as="geometry" />
        </mxCell>
        <mxCell id="BMBLtEc4FXJELd8b_WvW-17" value="" style="ellipse;whiteSpace=wrap;html=1;fontSize=13;" parent="1" vertex="1">
          <mxGeometry x="275.8592560046866" y="240.21760633036592" width="166.22773872290568" height="55.05440158259149" as="geometry" />
        </mxCell>
        <mxCell id="BMBLtEc4FXJELd8b_WvW-39" style="edgeStyle=orthogonalEdgeStyle;rounded=0;orthogonalLoop=1;jettySize=auto;html=1;entryX=0;entryY=0.5;entryDx=0;entryDy=0;fontSize=13;" parent="1" target="BMBLtEc4FXJELd8b_WvW-17" edge="1">
          <mxGeometry relative="1" as="geometry">
            <mxPoint x="144" y="150" as="sourcePoint" />
            <Array as="points">
              <mxPoint x="240" y="150" />
              <mxPoint x="240" y="268" />
            </Array>
          </mxGeometry>
        </mxCell>
        <mxCell id="BMBLtEc4FXJELd8b_WvW-18" value="&lt;font style=&quot;font-size: 13px;&quot;&gt;Zobrazit informace o skladu&lt;/font&gt;" style="text;html=1;strokeColor=none;fillColor=none;align=center;verticalAlign=middle;whiteSpace=wrap;rounded=0;fontSize=13;" parent="1" vertex="1">
          <mxGeometry x="297.30882249560636" y="253.98120672601385" width="119.49619214997072" height="27.527200791295744" as="geometry" />
        </mxCell>
        <mxCell id="BMBLtEc4FXJELd8b_WvW-20" value="" style="ellipse;whiteSpace=wrap;html=1;fontSize=13;" parent="1" vertex="1">
          <mxGeometry x="280.1269771528998" y="742.3013517969007" width="169.0017574692443" height="50.46653478404219" as="geometry" />
        </mxCell>
        <mxCell id="BMBLtEc4FXJELd8b_WvW-21" value="&lt;font style=&quot;font-size: 13px;&quot;&gt;Spravovat obchodní kontrakty&lt;/font&gt;" style="text;html=1;strokeColor=none;fillColor=none;align=center;verticalAlign=middle;whiteSpace=wrap;rounded=0;fontSize=13;" parent="1" vertex="1">
          <mxGeometry x="292.93014059753955" y="756.0649521925487" width="145.10251903925015" height="27.527200791295744" as="geometry" />
        </mxCell>
        <mxCell id="BMBLtEc4FXJELd8b_WvW-23" value="" style="ellipse;whiteSpace=wrap;html=1;fontSize=13;" parent="1" vertex="1">
          <mxGeometry x="278.63" y="319.99" width="162.59" height="50.47" as="geometry" />
        </mxCell>
        <mxCell id="BMBLtEc4FXJELd8b_WvW-82" style="edgeStyle=orthogonalEdgeStyle;rounded=0;orthogonalLoop=1;jettySize=auto;html=1;entryX=0;entryY=0.5;entryDx=0;entryDy=0;fontSize=13;" parent="1" source="BMBLtEc4FXJELd8b_WvW-25" target="BMBLtEc4FXJELd8b_WvW-20" edge="1">
          <mxGeometry relative="1" as="geometry">
            <Array as="points">
              <mxPoint x="230" y="840" />
              <mxPoint x="230" y="768" />
            </Array>
          </mxGeometry>
        </mxCell>
        <mxCell id="BMBLtEc4FXJELd8b_WvW-84" style="edgeStyle=orthogonalEdgeStyle;rounded=0;orthogonalLoop=1;jettySize=auto;html=1;entryX=0;entryY=0.5;entryDx=0;entryDy=0;fontSize=13;" parent="1" source="BMBLtEc4FXJELd8b_WvW-25" target="BMBLtEc4FXJELd8b_WvW-14" edge="1">
          <mxGeometry relative="1" as="geometry">
            <Array as="points">
              <mxPoint x="230" y="840" />
              <mxPoint x="230" y="912" />
            </Array>
          </mxGeometry>
        </mxCell>
        <mxCell id="yK8Pryvmi6HRYytS6vif-6" style="edgeStyle=orthogonalEdgeStyle;rounded=0;orthogonalLoop=1;jettySize=auto;html=1;entryX=0;entryY=0.5;entryDx=0;entryDy=0;" edge="1" parent="1" source="BMBLtEc4FXJELd8b_WvW-25" target="yK8Pryvmi6HRYytS6vif-4">
          <mxGeometry relative="1" as="geometry">
            <Array as="points">
              <mxPoint x="230" y="840" />
              <mxPoint x="230" y="705" />
            </Array>
          </mxGeometry>
        </mxCell>
        <mxCell id="BMBLtEc4FXJELd8b_WvW-25" value="&lt;font style=&quot;font-size: 13px;&quot;&gt;Trpaslík&lt;/font&gt;" style="shape=umlActor;verticalLabelPosition=bottom;verticalAlign=top;html=1;outlineConnect=0;fontSize=13;" parent="1" vertex="1">
          <mxGeometry x="92.14" y="792.77" width="60" height="66.38" as="geometry" />
        </mxCell>
        <mxCell id="BMBLtEc4FXJELd8b_WvW-28" value="" style="ellipse;whiteSpace=wrap;html=1;fontSize=13;" parent="1" vertex="1">
          <mxGeometry x="273.51571177504394" y="812.3732871744147" width="179.24428822495608" height="55.05440158259149" as="geometry" />
        </mxCell>
        <mxCell id="BMBLtEc4FXJELd8b_WvW-83" style="edgeStyle=orthogonalEdgeStyle;rounded=0;orthogonalLoop=1;jettySize=auto;html=1;entryX=0;entryY=0.5;entryDx=0;entryDy=0;fontSize=13;" parent="1" source="BMBLtEc4FXJELd8b_WvW-25" target="BMBLtEc4FXJELd8b_WvW-28" edge="1">
          <mxGeometry relative="1" as="geometry">
            <Array as="points">
              <mxPoint x="209" y="840" />
            </Array>
          </mxGeometry>
        </mxCell>
        <mxCell id="BMBLtEc4FXJELd8b_WvW-29" value="&lt;font style=&quot;font-size: 13px;&quot;&gt;Spravovat sklad&lt;/font&gt;" style="text;html=1;strokeColor=none;fillColor=none;align=center;verticalAlign=middle;whiteSpace=wrap;rounded=0;fontSize=13;" parent="1" vertex="1">
          <mxGeometry x="276.90999999999997" y="818" width="169.87" height="45.88" as="geometry" />
        </mxCell>
        <mxCell id="BMBLtEc4FXJELd8b_WvW-24" value="&lt;font style=&quot;font-size: 13px;&quot;&gt;Spravovat přesuny surovin&lt;/font&gt;" style="text;html=1;strokeColor=none;fillColor=none;align=center;verticalAlign=middle;whiteSpace=wrap;rounded=0;fontSize=13;" parent="1" vertex="1">
          <mxGeometry x="300.06999999999994" y="338.22999999999996" width="116.08" height="13.97" as="geometry" />
        </mxCell>
        <mxCell id="BMBLtEc4FXJELd8b_WvW-56" value="" style="ellipse;whiteSpace=wrap;html=1;fontSize=13;" parent="1" vertex="1">
          <mxGeometry x="273.52" y="390.65999999999997" width="160" height="45.88" as="geometry" />
        </mxCell>
        <mxCell id="BMBLtEc4FXJELd8b_WvW-57" value="&lt;font style=&quot;font-size: 13px;&quot;&gt;Spravovat osoby&lt;/font&gt;" style="text;html=1;strokeColor=none;fillColor=none;align=center;verticalAlign=middle;whiteSpace=wrap;rounded=0;fontSize=13;" parent="1" vertex="1">
          <mxGeometry x="294.99388400702986" y="399.8320804484008" width="112.98364967779732" height="27.527200791295744" as="geometry" />
        </mxCell>
        <mxCell id="BMBLtEc4FXJELd8b_WvW-60" value="" style="ellipse;whiteSpace=wrap;html=1;fontSize=13;" parent="1" vertex="1">
          <mxGeometry x="275.8611540714704" y="461.68221562809094" width="162.17340363210312" height="45.87866798549291" as="geometry" />
        </mxCell>
        <mxCell id="BMBLtEc4FXJELd8b_WvW-61" value="&lt;font style=&quot;font-size: 13px;&quot;&gt;Spravovat údaje o firmách&lt;/font&gt;" style="text;html=1;strokeColor=none;fillColor=none;align=center;verticalAlign=middle;whiteSpace=wrap;rounded=0;fontSize=13;" parent="1" vertex="1">
          <mxGeometry x="303.3794200351494" y="469.71098252555225" width="103.07400117164617" height="27.527200791295744" as="geometry" />
        </mxCell>
        <mxCell id="yK8Pryvmi6HRYytS6vif-3" style="edgeStyle=orthogonalEdgeStyle;rounded=0;orthogonalLoop=1;jettySize=auto;html=1;entryX=0;entryY=0.5;entryDx=0;entryDy=0;" edge="1" parent="1" source="BMBLtEc4FXJELd8b_WvW-85" target="yK8Pryvmi6HRYytS6vif-1">
          <mxGeometry relative="1" as="geometry">
            <Array as="points">
              <mxPoint x="200" y="1030" />
              <mxPoint x="200" y="977" />
            </Array>
          </mxGeometry>
        </mxCell>
        <mxCell id="yK8Pryvmi6HRYytS6vif-9" style="edgeStyle=orthogonalEdgeStyle;rounded=0;orthogonalLoop=1;jettySize=auto;html=1;entryX=0;entryY=0.5;entryDx=0;entryDy=0;" edge="1" parent="1" source="BMBLtEc4FXJELd8b_WvW-85" target="yK8Pryvmi6HRYytS6vif-7">
          <mxGeometry relative="1" as="geometry">
            <Array as="points">
              <mxPoint x="200" y="1030" />
              <mxPoint x="200" y="1140" />
            </Array>
          </mxGeometry>
        </mxCell>
        <mxCell id="BMBLtEc4FXJELd8b_WvW-85" value="&lt;font style=&quot;font-size: 13px;&quot;&gt;Firma&lt;/font&gt;" style="shape=umlActor;verticalLabelPosition=bottom;verticalAlign=top;html=1;outlineConnect=0;fontSize=13;" parent="1" vertex="1">
          <mxGeometry x="76.35" y="981.1633300362677" width="55.480374926772114" height="114.69666996373228" as="geometry" />
        </mxCell>
        <mxCell id="BMBLtEc4FXJELd8b_WvW-87" value="" style="ellipse;whiteSpace=wrap;html=1;fontSize=13;" parent="1" vertex="1">
          <mxGeometry x="283.07343292325714" y="1003.9133597098582" width="161.1064733450498" height="53.90743488295416" as="geometry" />
        </mxCell>
        <mxCell id="BMBLtEc4FXJELd8b_WvW-88" value="&lt;font style=&quot;font-size: 13px;&quot;&gt;Změnit stav přesunu &amp;nbsp;medzi sklady&lt;/font&gt;" style="text;html=1;strokeColor=none;fillColor=none;align=center;verticalAlign=middle;whiteSpace=wrap;rounded=0;fontSize=13;" parent="1" vertex="1">
          <mxGeometry x="305.92999999999995" y="1017.11" width="120.59" height="27.53" as="geometry" />
        </mxCell>
        <mxCell id="BMBLtEc4FXJELd8b_WvW-89" style="edgeStyle=orthogonalEdgeStyle;rounded=0;orthogonalLoop=1;jettySize=auto;html=1;entryX=0;entryY=0.5;entryDx=0;entryDy=0;fontSize=13;" parent="1" source="BMBLtEc4FXJELd8b_WvW-85" target="BMBLtEc4FXJELd8b_WvW-87" edge="1">
          <mxGeometry relative="1" as="geometry">
            <Array as="points">
              <mxPoint x="170" y="1031" />
              <mxPoint x="170" y="1031" />
            </Array>
          </mxGeometry>
        </mxCell>
        <mxCell id="BMBLtEc4FXJELd8b_WvW-98" value="" style="ellipse;whiteSpace=wrap;html=1;" parent="1" vertex="1">
          <mxGeometry x="281.8499999999999" y="1057.82" width="160" height="50" as="geometry" />
        </mxCell>
        <mxCell id="BMBLtEc4FXJELd8b_WvW-100" style="edgeStyle=orthogonalEdgeStyle;rounded=0;orthogonalLoop=1;jettySize=auto;html=1;entryX=0;entryY=0.5;entryDx=0;entryDy=0;" parent="1" source="BMBLtEc4FXJELd8b_WvW-85" target="BMBLtEc4FXJELd8b_WvW-98" edge="1">
          <mxGeometry relative="1" as="geometry">
            <Array as="points">
              <mxPoint x="200" y="1030" />
              <mxPoint x="200" y="1083" />
            </Array>
          </mxGeometry>
        </mxCell>
        <mxCell id="BMBLtEc4FXJELd8b_WvW-99" value="Zaevidovat obchodního zástupce" style="text;html=1;strokeColor=none;fillColor=none;align=center;verticalAlign=middle;whiteSpace=wrap;rounded=0;" parent="1" vertex="1">
          <mxGeometry x="301.2099999999999" y="1067.82" width="125.87" height="30" as="geometry" />
        </mxCell>
        <mxCell id="BMBLtEc4FXJELd8b_WvW-133" style="edgeStyle=orthogonalEdgeStyle;rounded=0;orthogonalLoop=1;jettySize=auto;html=1;entryX=1;entryY=0.5;entryDx=0;entryDy=0;dashed=1;" parent="1" source="BMBLtEc4FXJELd8b_WvW-108" target="BMBLtEc4FXJELd8b_WvW-60" edge="1">
          <mxGeometry relative="1" as="geometry">
            <Array as="points">
              <mxPoint x="510" y="610" />
              <mxPoint x="510" y="485" />
            </Array>
          </mxGeometry>
        </mxCell>
        <mxCell id="BMBLtEc4FXJELd8b_WvW-108" value="" style="ellipse;whiteSpace=wrap;html=1;" parent="1" vertex="1">
          <mxGeometry x="634.13" y="590.6314801772124" width="130" height="38.6402362830853" as="geometry" />
        </mxCell>
        <mxCell id="BMBLtEc4FXJELd8b_WvW-109" value="Zaregistrovat firmu" style="text;html=1;strokeColor=none;fillColor=none;align=center;verticalAlign=middle;whiteSpace=wrap;rounded=0;" parent="1" vertex="1">
          <mxGeometry x="666.63" y="597.1848642508236" width="65" height="25.533468135862766" as="geometry" />
        </mxCell>
        <mxCell id="BMBLtEc4FXJELd8b_WvW-134" style="edgeStyle=orthogonalEdgeStyle;rounded=0;orthogonalLoop=1;jettySize=auto;html=1;entryX=1;entryY=0.5;entryDx=0;entryDy=0;dashed=1;" parent="1" source="BMBLtEc4FXJELd8b_WvW-110" target="BMBLtEc4FXJELd8b_WvW-60" edge="1">
          <mxGeometry relative="1" as="geometry">
            <Array as="points">
              <mxPoint x="510" y="653" />
              <mxPoint x="510" y="485" />
            </Array>
          </mxGeometry>
        </mxCell>
        <mxCell id="BMBLtEc4FXJELd8b_WvW-110" value="" style="ellipse;whiteSpace=wrap;html=1;" parent="1" vertex="1">
          <mxGeometry x="634.13" y="633.4497637169147" width="130" height="38.6402362830853" as="geometry" />
        </mxCell>
        <mxCell id="BMBLtEc4FXJELd8b_WvW-111" value="Upravit firmu&amp;nbsp;" style="text;html=1;strokeColor=none;fillColor=none;align=center;verticalAlign=middle;whiteSpace=wrap;rounded=0;" parent="1" vertex="1">
          <mxGeometry x="674.755" y="640.0078109735317" width="48.75" height="25.533468135862766" as="geometry" />
        </mxCell>
        <mxCell id="BMBLtEc4FXJELd8b_WvW-132" style="edgeStyle=orthogonalEdgeStyle;rounded=0;orthogonalLoop=1;jettySize=auto;html=1;entryX=1;entryY=0.5;entryDx=0;entryDy=0;dashed=1;" parent="1" edge="1">
          <mxGeometry relative="1" as="geometry">
            <mxPoint x="634.1300541210361" y="568.3866666666668" as="sourcePoint" />
            <mxPoint x="438.65455770357346" y="485.34154962083767" as="targetPoint" />
            <Array as="points">
              <mxPoint x="510" y="568" />
              <mxPoint x="510" y="485" />
            </Array>
          </mxGeometry>
        </mxCell>
        <mxCell id="BMBLtEc4FXJELd8b_WvW-116" value="" style="ellipse;whiteSpace=wrap;html=1;" parent="1" vertex="1">
          <mxGeometry x="633.51" y="548.3714801772124" width="130" height="38.6402362830853" as="geometry" />
        </mxCell>
        <mxCell id="BMBLtEc4FXJELd8b_WvW-117" value="Odstranit firmu" style="text;html=1;strokeColor=none;fillColor=none;align=center;verticalAlign=middle;whiteSpace=wrap;rounded=0;" parent="1" vertex="1">
          <mxGeometry x="674.755" y="554.9512438941273" width="48.75" height="23.18414176985118" as="geometry" />
        </mxCell>
        <mxCell id="BMBLtEc4FXJELd8b_WvW-126" style="edgeStyle=orthogonalEdgeStyle;rounded=0;orthogonalLoop=1;jettySize=auto;html=1;entryX=1;entryY=0.5;entryDx=0;entryDy=0;dashed=1;" parent="1" source="BMBLtEc4FXJELd8b_WvW-96" target="BMBLtEc4FXJELd8b_WvW-56" edge="1">
          <mxGeometry relative="1" as="geometry" />
        </mxCell>
        <mxCell id="BMBLtEc4FXJELd8b_WvW-96" value="" style="ellipse;whiteSpace=wrap;html=1;" parent="1" vertex="1">
          <mxGeometry x="632.8900000000001" y="430.0064705882353" width="130" height="37.0970588235294" as="geometry" />
        </mxCell>
        <mxCell id="BMBLtEc4FXJELd8b_WvW-97" value="Odstranit osobu" style="text;html=1;strokeColor=none;fillColor=none;align=center;verticalAlign=middle;whiteSpace=wrap;rounded=0;" parent="1" vertex="1">
          <mxGeometry x="673.5150000000001" y="437.42588235294124" width="48.75" height="22.258235294117647" as="geometry" />
        </mxCell>
        <mxCell id="BMBLtEc4FXJELd8b_WvW-125" style="edgeStyle=orthogonalEdgeStyle;rounded=0;orthogonalLoop=1;jettySize=auto;html=1;entryX=1;entryY=0.5;entryDx=0;entryDy=0;dashed=1;" parent="1" source="BMBLtEc4FXJELd8b_WvW-103" target="BMBLtEc4FXJELd8b_WvW-56" edge="1">
          <mxGeometry relative="1" as="geometry" />
        </mxCell>
        <mxCell id="BMBLtEc4FXJELd8b_WvW-103" value="" style="ellipse;whiteSpace=wrap;html=1;" parent="1" vertex="1">
          <mxGeometry x="633.51" y="477.8829411764706" width="130" height="37.0970588235294" as="geometry" />
        </mxCell>
        <mxCell id="BMBLtEc4FXJELd8b_WvW-104" value="Upravit &amp;nbsp;osobu" style="text;html=1;strokeColor=none;fillColor=none;align=center;verticalAlign=middle;whiteSpace=wrap;rounded=0;" parent="1" vertex="1">
          <mxGeometry x="674.135" y="485.30235294117654" width="48.75" height="22.258235294117647" as="geometry" />
        </mxCell>
        <mxCell id="BMBLtEc4FXJELd8b_WvW-128" style="edgeStyle=orthogonalEdgeStyle;rounded=0;orthogonalLoop=1;jettySize=auto;html=1;entryX=1;entryY=0.5;entryDx=0;entryDy=0;dashed=1;" parent="1" source="BMBLtEc4FXJELd8b_WvW-105" target="BMBLtEc4FXJELd8b_WvW-56" edge="1">
          <mxGeometry relative="1" as="geometry" />
        </mxCell>
        <mxCell id="BMBLtEc4FXJELd8b_WvW-105" value="" style="ellipse;whiteSpace=wrap;html=1;" parent="1" vertex="1">
          <mxGeometry x="633.51" y="383.24" width="130" height="37.0970588235294" as="geometry" />
        </mxCell>
        <mxCell id="BMBLtEc4FXJELd8b_WvW-106" value="Vytvořit osobu" style="text;html=1;strokeColor=none;fillColor=none;align=center;verticalAlign=middle;whiteSpace=wrap;rounded=0;" parent="1" vertex="1">
          <mxGeometry x="674.135" y="390.6594117647059" width="48.75" height="22.258235294117647" as="geometry" />
        </mxCell>
        <mxCell id="BMBLtEc4FXJELd8b_WvW-129" value="&amp;lt;&amp;lt;extend&amp;gt;&amp;gt;" style="text;html=1;strokeColor=none;fillColor=none;align=center;verticalAlign=middle;whiteSpace=wrap;rounded=0;" parent="1" vertex="1">
          <mxGeometry x="563.51" y="467.1" width="60" height="30" as="geometry" />
        </mxCell>
        <mxCell id="BMBLtEc4FXJELd8b_WvW-130" value="&amp;lt;&amp;lt;extend&amp;gt;&amp;gt;" style="text;html=1;strokeColor=none;fillColor=none;align=center;verticalAlign=middle;whiteSpace=wrap;rounded=0;" parent="1" vertex="1">
          <mxGeometry x="563.51" y="420.34000000000003" width="60" height="30" as="geometry" />
        </mxCell>
        <mxCell id="BMBLtEc4FXJELd8b_WvW-131" value="&amp;lt;&amp;lt;extend&amp;gt;&amp;gt;" style="text;html=1;strokeColor=none;fillColor=none;align=center;verticalAlign=middle;whiteSpace=wrap;rounded=0;" parent="1" vertex="1">
          <mxGeometry x="563.51" y="373.24" width="60" height="30" as="geometry" />
        </mxCell>
        <mxCell id="BMBLtEc4FXJELd8b_WvW-135" value="&amp;lt;&amp;lt;extend&amp;gt;&amp;gt;" style="text;html=1;strokeColor=none;fillColor=none;align=center;verticalAlign=middle;whiteSpace=wrap;rounded=0;" parent="1" vertex="1">
          <mxGeometry x="564.13" y="544.75" width="60" height="30" as="geometry" />
        </mxCell>
        <mxCell id="BMBLtEc4FXJELd8b_WvW-136" value="&amp;lt;&amp;lt;extend&amp;gt;&amp;gt;" style="text;html=1;strokeColor=none;fillColor=none;align=center;verticalAlign=middle;whiteSpace=wrap;rounded=0;" parent="1" vertex="1">
          <mxGeometry x="564.13" y="587.0100000000001" width="60" height="30" as="geometry" />
        </mxCell>
        <mxCell id="BMBLtEc4FXJELd8b_WvW-137" value="&amp;lt;&amp;lt;extend&amp;gt;&amp;gt;" style="text;html=1;strokeColor=none;fillColor=none;align=center;verticalAlign=middle;whiteSpace=wrap;rounded=0;" parent="1" vertex="1">
          <mxGeometry x="564.13" y="629.27" width="60" height="30" as="geometry" />
        </mxCell>
        <mxCell id="BMBLtEc4FXJELd8b_WvW-190" style="edgeStyle=orthogonalEdgeStyle;rounded=0;orthogonalLoop=1;jettySize=auto;html=1;entryX=1;entryY=0.5;entryDx=0;entryDy=0;dashed=1;" parent="1" source="BMBLtEc4FXJELd8b_WvW-151" target="BMBLtEc4FXJELd8b_WvW-23" edge="1">
          <mxGeometry relative="1" as="geometry" />
        </mxCell>
        <mxCell id="BMBLtEc4FXJELd8b_WvW-151" value="" style="ellipse;whiteSpace=wrap;html=1;" parent="1" vertex="1">
          <mxGeometry x="604.0500000000001" y="326.68" width="130" height="37.0970588235294" as="geometry" />
        </mxCell>
        <mxCell id="BMBLtEc4FXJELd8b_WvW-152" value="Vytvořit přesun" style="text;html=1;strokeColor=none;fillColor=none;align=center;verticalAlign=middle;whiteSpace=wrap;rounded=0;" parent="1" vertex="1">
          <mxGeometry x="644.6750000000001" y="334.0994117647059" width="48.75" height="22.258235294117647" as="geometry" />
        </mxCell>
        <mxCell id="BMBLtEc4FXJELd8b_WvW-154" value="&amp;lt;&amp;lt;extend&amp;gt;&amp;gt;" style="text;html=1;align=center;verticalAlign=middle;resizable=0;points=[];autosize=1;strokeColor=none;fillColor=none;" parent="1" vertex="1">
          <mxGeometry x="460.8" y="320" width="90" height="30" as="geometry" />
        </mxCell>
        <mxCell id="BMBLtEc4FXJELd8b_WvW-184" style="edgeStyle=orthogonalEdgeStyle;rounded=0;orthogonalLoop=1;jettySize=auto;html=1;entryX=1;entryY=0.5;entryDx=0;entryDy=0;dashed=1;" parent="1" source="BMBLtEc4FXJELd8b_WvW-155" target="BMBLtEc4FXJELd8b_WvW-20" edge="1">
          <mxGeometry relative="1" as="geometry">
            <Array as="points">
              <mxPoint x="570" y="844" />
              <mxPoint x="570" y="768" />
            </Array>
          </mxGeometry>
        </mxCell>
        <mxCell id="BMBLtEc4FXJELd8b_WvW-155" value="" style="ellipse;whiteSpace=wrap;html=1;" parent="1" vertex="1">
          <mxGeometry x="650.62" y="824.6114801772123" width="130" height="38.6402362830853" as="geometry" />
        </mxCell>
        <mxCell id="BMBLtEc4FXJELd8b_WvW-156" value="Upravit kontrakt" style="text;html=1;strokeColor=none;fillColor=none;align=center;verticalAlign=middle;whiteSpace=wrap;rounded=0;" parent="1" vertex="1">
          <mxGeometry x="683.12" y="831.1648642508235" width="65" height="25.533468135862766" as="geometry" />
        </mxCell>
        <mxCell id="BMBLtEc4FXJELd8b_WvW-163" style="edgeStyle=orthogonalEdgeStyle;rounded=0;orthogonalLoop=1;jettySize=auto;html=1;entryX=1;entryY=0.5;entryDx=0;entryDy=0;dashed=1;" parent="1" source="BMBLtEc4FXJELd8b_WvW-157" target="BMBLtEc4FXJELd8b_WvW-20" edge="1">
          <mxGeometry relative="1" as="geometry">
            <Array as="points">
              <mxPoint x="570" y="887" />
              <mxPoint x="570" y="768" />
            </Array>
          </mxGeometry>
        </mxCell>
        <mxCell id="BMBLtEc4FXJELd8b_WvW-157" value="" style="ellipse;whiteSpace=wrap;html=1;" parent="1" vertex="1">
          <mxGeometry x="650" y="867.4297637169146" width="130" height="38.6402362830853" as="geometry" />
        </mxCell>
        <mxCell id="BMBLtEc4FXJELd8b_WvW-158" value="Ukončit kontrakt" style="text;html=1;strokeColor=none;fillColor=none;align=center;verticalAlign=middle;whiteSpace=wrap;rounded=0;" parent="1" vertex="1">
          <mxGeometry x="691.245" y="873.9878109735316" width="48.75" height="25.533468135862766" as="geometry" />
        </mxCell>
        <mxCell id="BMBLtEc4FXJELd8b_WvW-171" style="edgeStyle=orthogonalEdgeStyle;rounded=0;orthogonalLoop=1;jettySize=auto;html=1;entryX=1;entryY=0.5;entryDx=0;entryDy=0;dashed=1;" parent="1" source="BMBLtEc4FXJELd8b_WvW-159" target="BMBLtEc4FXJELd8b_WvW-20" edge="1">
          <mxGeometry relative="1" as="geometry">
            <Array as="points">
              <mxPoint x="570" y="802" />
              <mxPoint x="570" y="768" />
            </Array>
          </mxGeometry>
        </mxCell>
        <mxCell id="BMBLtEc4FXJELd8b_WvW-159" value="" style="ellipse;whiteSpace=wrap;html=1;" parent="1" vertex="1">
          <mxGeometry x="650" y="782.3514801772124" width="130" height="38.6402362830853" as="geometry" />
        </mxCell>
        <mxCell id="BMBLtEc4FXJELd8b_WvW-160" value="Vytvořit kontrakt" style="text;html=1;strokeColor=none;fillColor=none;align=center;verticalAlign=middle;whiteSpace=wrap;rounded=0;" parent="1" vertex="1">
          <mxGeometry x="691.245" y="788.9312438941272" width="48.75" height="23.18414176985118" as="geometry" />
        </mxCell>
        <mxCell id="BMBLtEc4FXJELd8b_WvW-167" value="&amp;lt;&amp;lt;extend&amp;gt;&amp;gt;" style="text;html=1;strokeColor=none;fillColor=none;align=center;verticalAlign=middle;whiteSpace=wrap;rounded=0;" parent="1" vertex="1">
          <mxGeometry x="580" y="819.05" width="60" height="30" as="geometry" />
        </mxCell>
        <mxCell id="BMBLtEc4FXJELd8b_WvW-168" value="&amp;lt;&amp;lt;extend&amp;gt;&amp;gt;" style="text;html=1;strokeColor=none;fillColor=none;align=center;verticalAlign=middle;whiteSpace=wrap;rounded=0;" parent="1" vertex="1">
          <mxGeometry x="580" y="863.2499999999999" width="60" height="30" as="geometry" />
        </mxCell>
        <mxCell id="BMBLtEc4FXJELd8b_WvW-166" value="&amp;lt;&amp;lt;extend&amp;gt;&amp;gt;" style="text;html=1;strokeColor=none;fillColor=none;align=center;verticalAlign=middle;whiteSpace=wrap;rounded=0;" parent="1" vertex="1">
          <mxGeometry x="580" y="782.3499999999999" width="60" height="18.7" as="geometry" />
        </mxCell>
        <mxCell id="BMBLtEc4FXJELd8b_WvW-179" style="edgeStyle=orthogonalEdgeStyle;rounded=0;orthogonalLoop=1;jettySize=auto;html=1;entryX=1;entryY=0.5;entryDx=0;entryDy=0;dashed=1;" parent="1" source="BMBLtEc4FXJELd8b_WvW-172" target="BMBLtEc4FXJELd8b_WvW-14" edge="1">
          <mxGeometry relative="1" as="geometry">
            <Array as="points">
              <mxPoint x="540" y="954" />
              <mxPoint x="540" y="912" />
            </Array>
          </mxGeometry>
        </mxCell>
        <mxCell id="BMBLtEc4FXJELd8b_WvW-185" style="edgeStyle=orthogonalEdgeStyle;rounded=0;orthogonalLoop=1;jettySize=auto;html=1;dashed=1;entryX=1.002;entryY=0.501;entryDx=0;entryDy=0;entryPerimeter=0;" parent="1" source="BMBLtEc4FXJELd8b_WvW-172" target="BMBLtEc4FXJELd8b_WvW-28" edge="1">
          <mxGeometry relative="1" as="geometry">
            <mxPoint x="460" y="840" as="targetPoint" />
            <Array as="points">
              <mxPoint x="540" y="954" />
              <mxPoint x="540" y="841" />
              <mxPoint x="470" y="841" />
            </Array>
          </mxGeometry>
        </mxCell>
        <mxCell id="BMBLtEc4FXJELd8b_WvW-172" value="" style="ellipse;whiteSpace=wrap;html=1;" parent="1" vertex="1">
          <mxGeometry x="612.5" y="934.9914801772125" width="130" height="38.6402362830853" as="geometry" />
        </mxCell>
        <mxCell id="BMBLtEc4FXJELd8b_WvW-173" value="Zaevidovat množství surovin" style="text;html=1;strokeColor=none;fillColor=none;align=center;verticalAlign=middle;whiteSpace=wrap;rounded=0;" parent="1" vertex="1">
          <mxGeometry x="625" y="939.5799999999999" width="105" height="25.53" as="geometry" />
        </mxCell>
        <mxCell id="BMBLtEc4FXJELd8b_WvW-180" value="&amp;lt;&amp;lt;extend&amp;gt;&amp;gt;" style="text;html=1;strokeColor=none;fillColor=none;align=center;verticalAlign=middle;whiteSpace=wrap;rounded=0;" parent="1" vertex="1">
          <mxGeometry x="464" y="889.1099999999999" width="60" height="30" as="geometry" />
        </mxCell>
        <mxCell id="BMBLtEc4FXJELd8b_WvW-181" value="&amp;lt;&amp;lt;extend&amp;gt;&amp;gt;" style="text;html=1;strokeColor=none;fillColor=none;align=center;verticalAlign=middle;whiteSpace=wrap;rounded=0;" parent="1" vertex="1">
          <mxGeometry x="469.25" y="817.9999999999999" width="60" height="30" as="geometry" />
        </mxCell>
        <mxCell id="BMBLtEc4FXJELd8b_WvW-197" value="" style="endArrow=classic;html=1;rounded=0;" parent="1" edge="1">
          <mxGeometry width="50" height="50" relative="1" as="geometry">
            <mxPoint x="121.93" y="247.27" as="sourcePoint" />
            <mxPoint x="121.64000000000001" y="776.92" as="targetPoint" />
          </mxGeometry>
        </mxCell>
        <mxCell id="BMBLtEc4FXJELd8b_WvW-202" value="" style="ellipse;whiteSpace=wrap;html=1;fontSize=13;" parent="1" vertex="1">
          <mxGeometry x="274.6811540714704" y="528.872215628091" width="162.17340363210312" height="45.87866798549291" as="geometry" />
        </mxCell>
        <mxCell id="BMBLtEc4FXJELd8b_WvW-203" value="Spravovat &amp;nbsp;zařízení" style="text;html=1;strokeColor=none;fillColor=none;align=center;verticalAlign=middle;whiteSpace=wrap;rounded=0;fontSize=13;" parent="1" vertex="1">
          <mxGeometry x="302.1994200351494" y="536.9009825255523" width="103.07400117164617" height="27.527200791295744" as="geometry" />
        </mxCell>
        <mxCell id="BMBLtEc4FXJELd8b_WvW-213" style="edgeStyle=orthogonalEdgeStyle;rounded=0;orthogonalLoop=1;jettySize=auto;html=1;entryX=0.5;entryY=1;entryDx=0;entryDy=0;dashed=1;" parent="1" source="BMBLtEc4FXJELd8b_WvW-208" target="BMBLtEc4FXJELd8b_WvW-202" edge="1">
          <mxGeometry relative="1" as="geometry" />
        </mxCell>
        <mxCell id="BMBLtEc4FXJELd8b_WvW-208" value="" style="ellipse;whiteSpace=wrap;html=1;" parent="1" vertex="1">
          <mxGeometry x="370" y="617.0097637169147" width="130" height="38.6402362830853" as="geometry" />
        </mxCell>
        <mxCell id="BMBLtEc4FXJELd8b_WvW-209" value="Odebrat zařízení" style="text;html=1;strokeColor=none;fillColor=none;align=center;verticalAlign=middle;whiteSpace=wrap;rounded=0;" parent="1" vertex="1">
          <mxGeometry x="410.625" y="623.5678109735317" width="48.75" height="25.533468135862766" as="geometry" />
        </mxCell>
        <mxCell id="BMBLtEc4FXJELd8b_WvW-212" style="edgeStyle=orthogonalEdgeStyle;rounded=0;orthogonalLoop=1;jettySize=auto;html=1;entryX=0.5;entryY=1;entryDx=0;entryDy=0;dashed=1;" parent="1" source="BMBLtEc4FXJELd8b_WvW-210" target="BMBLtEc4FXJELd8b_WvW-202" edge="1">
          <mxGeometry relative="1" as="geometry" />
        </mxCell>
        <mxCell id="BMBLtEc4FXJELd8b_WvW-210" value="" style="ellipse;whiteSpace=wrap;html=1;" parent="1" vertex="1">
          <mxGeometry x="209.99999999999997" y="617.0097637169147" width="130" height="38.6402362830853" as="geometry" />
        </mxCell>
        <mxCell id="BMBLtEc4FXJELd8b_WvW-211" value="Vytvořit zařízení" style="text;html=1;strokeColor=none;fillColor=none;align=center;verticalAlign=middle;whiteSpace=wrap;rounded=0;" parent="1" vertex="1">
          <mxGeometry x="250.62499999999997" y="623.5678109735317" width="48.75" height="25.533468135862766" as="geometry" />
        </mxCell>
        <mxCell id="BMBLtEc4FXJELd8b_WvW-214" value="&amp;lt;&amp;lt;extend&amp;gt;&amp;gt;" style="text;html=1;strokeColor=none;fillColor=none;align=center;verticalAlign=middle;whiteSpace=wrap;rounded=0;" parent="1" vertex="1">
          <mxGeometry x="368.33" y="574.7500000000001" width="60" height="30" as="geometry" />
        </mxCell>
        <mxCell id="BMBLtEc4FXJELd8b_WvW-215" value="&amp;lt;&amp;lt;extend&amp;gt;&amp;gt;" style="text;html=1;strokeColor=none;fillColor=none;align=center;verticalAlign=middle;whiteSpace=wrap;rounded=0;" parent="1" vertex="1">
          <mxGeometry x="283.23" y="574.7500000000001" width="60" height="30" as="geometry" />
        </mxCell>
        <mxCell id="yK8Pryvmi6HRYytS6vif-1" value="" style="ellipse;whiteSpace=wrap;html=1;fontSize=13;" vertex="1" parent="1">
          <mxGeometry x="285.67343292325717" y="950.0033597098584" width="161.1064733450498" height="53.90743488295416" as="geometry" />
        </mxCell>
        <mxCell id="yK8Pryvmi6HRYytS6vif-2" value="&lt;font style=&quot;font-size: 13px;&quot;&gt;Změnit &amp;nbsp;stav dodávky&lt;/font&gt;" style="text;html=1;strokeColor=none;fillColor=none;align=center;verticalAlign=middle;whiteSpace=wrap;rounded=0;fontSize=13;" vertex="1" parent="1">
          <mxGeometry x="308.53" y="963.2" width="120.59" height="27.53" as="geometry" />
        </mxCell>
        <mxCell id="yK8Pryvmi6HRYytS6vif-4" value="" style="ellipse;whiteSpace=wrap;html=1;fontSize=13;" vertex="1" parent="1">
          <mxGeometry x="279.3769771528998" y="680.0013517969007" width="169.0017574692443" height="50.46653478404219" as="geometry" />
        </mxCell>
        <mxCell id="yK8Pryvmi6HRYytS6vif-5" value="&lt;font style=&quot;font-size: 13px;&quot;&gt;Zobrazit informace o firmě&lt;/font&gt;" style="text;html=1;strokeColor=none;fillColor=none;align=center;verticalAlign=middle;whiteSpace=wrap;rounded=0;fontSize=13;" vertex="1" parent="1">
          <mxGeometry x="292.18014059753955" y="693.7649521925488" width="145.10251903925015" height="27.527200791295744" as="geometry" />
        </mxCell>
        <mxCell id="yK8Pryvmi6HRYytS6vif-7" value="" style="ellipse;whiteSpace=wrap;html=1;fontSize=13;" vertex="1" parent="1">
          <mxGeometry x="279.4869771528998" y="1114.7013517969008" width="169.0017574692443" height="50.46653478404219" as="geometry" />
        </mxCell>
        <mxCell id="yK8Pryvmi6HRYytS6vif-8" value="&lt;font style=&quot;font-size: 13px;&quot;&gt;Uzavřít obchodní kontrakt&lt;/font&gt;" style="text;html=1;strokeColor=none;fillColor=none;align=center;verticalAlign=middle;whiteSpace=wrap;rounded=0;fontSize=13;" vertex="1" parent="1">
          <mxGeometry x="292.2901405975395" y="1128.4649521925487" width="145.10251903925015" height="27.527200791295744" as="geometry" />
        </mxCell>
      </root>
    </mxGraphModel>
  </diagram>
</mxfile>
